<mxfile host="app.diagrams.net" modified="2022-09-06T08:36:05.866Z" agent="5.0 (Windows NT 10.0; Win64; x64) AppleWebKit/537.36 (KHTML, like Gecko) Chrome/104.0.5112.102 Safari/537.36 Edg/104.0.1293.70" etag="4mxB68ig8QpfEAXRmniD" version="20.2.7" type="github">
  <diagram id="aXW2ySA9wljuXu6o23hV" name="第 1 页">
    <mxGraphModel dx="1307" dy="1019" grid="1" gridSize="10" guides="1" tooltips="1" connect="1" arrows="1" fold="1" page="1" pageScale="1" pageWidth="827" pageHeight="1169" math="0" shadow="0">
      <root>
        <mxCell id="0" />
        <mxCell id="1" parent="0" />
        <mxCell id="oZT5lS4tC0AtJPevwrB1-15" style="edgeStyle=orthogonalEdgeStyle;rounded=0;orthogonalLoop=1;jettySize=auto;html=1;entryX=0.5;entryY=1;entryDx=0;entryDy=0;exitX=0;exitY=0.5;exitDx=0;exitDy=0;endArrow=block;endFill=0;endSize=12;" edge="1" parent="1" source="oZT5lS4tC0AtJPevwrB1-1" target="oZT5lS4tC0AtJPevwrB1-2">
          <mxGeometry relative="1" as="geometry" />
        </mxCell>
        <mxCell id="oZT5lS4tC0AtJPevwrB1-1" value="&lt;p style=&quot;margin:0px;margin-top:4px;text-align:center;&quot;&gt;&lt;b&gt;SdwanLinkDetectServiceImp&lt;/b&gt;&lt;br&gt;&lt;/p&gt;&lt;hr size=&quot;1&quot;&gt;&lt;p style=&quot;margin:0px;margin-left:4px;&quot;&gt;-&amp;nbsp;detectlinkId:&amp;nbsp;int&lt;/p&gt;&lt;p style=&quot;margin:0px;margin-left:4px;&quot;&gt;-&amp;nbsp;detectLinkName: string&lt;br&gt;&lt;/p&gt;&lt;p style=&quot;margin:0px;margin-left:4px;&quot;&gt;-&amp;nbsp;linkGroupId: int&lt;/p&gt;&lt;p style=&quot;margin:0px;margin-left:4px;&quot;&gt;-&amp;nbsp;linkGroupName: string&lt;/p&gt;&lt;hr size=&quot;1&quot;&gt;&lt;p style=&quot;margin: 0px 0px 0px 4px;&quot;&gt;&lt;/p&gt;&lt;p style=&quot;margin: 0px 0px 0px 4px;&quot;&gt;+&amp;nbsp;linkQualityDetect(LinkParamsDTO): JSONObject&lt;br style=&quot;padding: 0px; margin: 0px;&quot;&gt;+&amp;nbsp;queryLinkQuality(LinkParamsDTO):&amp;nbsp;JSONObject&lt;br&gt;&lt;/p&gt;&lt;p style=&quot;margin: 0px 0px 0px 4px;&quot;&gt;+ constructDetectData(JSONObject, JSONObject): Map&lt;/p&gt;&lt;p style=&quot;margin: 0px 0px 0px 4px;&quot;&gt;&lt;br&gt;&lt;/p&gt;" style="verticalAlign=top;align=left;overflow=fill;fontSize=12;fontFamily=Helvetica;html=1;" vertex="1" parent="1">
          <mxGeometry x="360" y="300" width="430" height="160" as="geometry" />
        </mxCell>
        <mxCell id="oZT5lS4tC0AtJPevwrB1-2" value="&lt;p style=&quot;margin:0px;margin-top:4px;text-align:center;&quot;&gt;&lt;i&gt;&amp;lt;&amp;lt;Interface&amp;gt;&amp;gt;&lt;/i&gt;&lt;br&gt;&lt;span style=&quot;background-color: initial;&quot;&gt;&lt;b&gt;SdwanLinkDetectS&lt;/b&gt;&lt;/span&gt;&lt;b style=&quot;background-color: initial;&quot;&gt;ervice&lt;/b&gt;&lt;/p&gt;&lt;hr size=&quot;1&quot;&gt;&lt;p style=&quot;margin: 0px 0px 0px 4px;&quot;&gt;+&amp;nbsp;linkQualityDetect(LinkParamsDTO): JSONObject&lt;br style=&quot;padding: 0px; margin: 0px;&quot;&gt;+&amp;nbsp;queryLinkQuality(LinkParamsDTO):&amp;nbsp;JSONObject&lt;br&gt;&lt;/p&gt;&lt;p style=&quot;margin:0px;margin-left:4px;&quot;&gt;&lt;/p&gt;" style="verticalAlign=top;align=left;overflow=fill;fontSize=12;fontFamily=Helvetica;html=1;" vertex="1" parent="1">
          <mxGeometry x="40" y="140" width="280" height="95" as="geometry" />
        </mxCell>
        <mxCell id="oZT5lS4tC0AtJPevwrB1-4" value="&lt;p style=&quot;margin:0px;margin-top:4px;text-align:center;&quot;&gt;&lt;span style=&quot;background-color: initial;&quot;&gt;&lt;b&gt;SdwanLinkDetect&lt;/b&gt;&lt;/span&gt;&lt;b style=&quot;background-color: initial;&quot;&gt;Controller&lt;/b&gt;&lt;/p&gt;&lt;hr size=&quot;1&quot;&gt;&lt;p style=&quot;margin: 0px 0px 0px 4px;&quot;&gt;-&amp;nbsp;sdwanLinkDataService:&amp;nbsp;SdwanLinkDataService&lt;/p&gt;&lt;p style=&quot;margin: 0px 0px 0px 4px;&quot;&gt;-&amp;nbsp;sdwanLinkDetectService: SdwanLinkDetectService&lt;/p&gt;&lt;p style=&quot;margin: 0px 0px 0px 4px;&quot;&gt;- linkTranslateService: LinkTranslateService&lt;br&gt;&lt;/p&gt;&lt;hr size=&quot;1&quot;&gt;&lt;p style=&quot;margin: 0px 0px 0px 4px;&quot;&gt;&lt;/p&gt;&lt;p style=&quot;margin: 0px 0px 0px 4px;&quot;&gt;+&amp;nbsp;linkQualityDetect(LinkParamsDTO): JSONObject&lt;br style=&quot;padding: 0px; margin: 0px;&quot;&gt;+&amp;nbsp;queryLinkQuality(LinkParamsDTO):&amp;nbsp;JSONObject&lt;br&gt;&lt;/p&gt;" style="verticalAlign=top;align=left;overflow=fill;fontSize=12;fontFamily=Helvetica;html=1;" vertex="1" parent="1">
          <mxGeometry x="400" y="97.5" width="290" height="145" as="geometry" />
        </mxCell>
        <mxCell id="oZT5lS4tC0AtJPevwrB1-5" value="&lt;p style=&quot;margin:0px;margin-top:4px;text-align:center;&quot;&gt;&lt;span style=&quot;background-color: initial;&quot;&gt;&lt;b&gt;SdwanData&lt;/b&gt;&lt;/span&gt;&lt;b style=&quot;background-color: initial;&quot;&gt;Convert&lt;/b&gt;&lt;/p&gt;&lt;hr size=&quot;1&quot;&gt;&lt;p style=&quot;margin: 0px 0px 0px 4px;&quot;&gt;- originData: DataDTO&lt;/p&gt;&lt;p style=&quot;margin: 0px 0px 0px 4px;&quot;&gt;- fetchData: JSONObject&lt;/p&gt;&lt;p style=&quot;margin: 0px 0px 0px 4px;&quot;&gt;- originMetaService:&amp;nbsp; OriginMetaService&lt;/p&gt;&lt;hr size=&quot;1&quot;&gt;&lt;p style=&quot;margin: 0px 0px 0px 4px;&quot;&gt;&lt;/p&gt;&lt;p style=&quot;margin: 0px 0px 0px 4px;&quot;&gt;+&amp;nbsp;&lt;span style=&quot;background-color: initial;&quot;&gt;fetchLinkQuality&lt;/span&gt;&lt;span style=&quot;background-color: initial;&quot;&gt;Async&lt;/span&gt;&lt;span style=&quot;background-color: initial;&quot;&gt;(JSONObject): Integer&lt;/span&gt;&lt;/p&gt;&lt;p style=&quot;margin: 0px 0px 0px 4px;&quot;&gt;+&amp;nbsp;&lt;span style=&quot;text-align: center;&quot;&gt;fetchSouthLink&lt;/span&gt;&lt;span style=&quot;text-align: center;&quot;&gt;Quality&lt;/span&gt;(integer): JSONObject&lt;br&gt;&lt;/p&gt;" style="verticalAlign=top;align=left;overflow=fill;fontSize=12;fontFamily=Helvetica;html=1;" vertex="1" parent="1">
          <mxGeometry x="45" y="500" width="290" height="150" as="geometry" />
        </mxCell>
        <mxCell id="oZT5lS4tC0AtJPevwrB1-10" value="1" style="endArrow=open;html=1;endSize=12;startArrow=diamondThin;startSize=14;startFill=1;edgeStyle=orthogonalEdgeStyle;align=left;verticalAlign=bottom;rounded=0;exitX=0;exitY=0.5;exitDx=0;exitDy=0;" edge="1" parent="1" source="oZT5lS4tC0AtJPevwrB1-4" target="oZT5lS4tC0AtJPevwrB1-2">
          <mxGeometry x="-0.7778" relative="1" as="geometry">
            <mxPoint x="360" y="210" as="sourcePoint" />
            <mxPoint x="520" y="210" as="targetPoint" />
            <mxPoint as="offset" />
          </mxGeometry>
        </mxCell>
        <mxCell id="oZT5lS4tC0AtJPevwrB1-11" value="&lt;p style=&quot;margin:0px;margin-top:4px;text-align:center;&quot;&gt;&lt;i&gt;&amp;lt;&amp;lt;Interface&amp;gt;&amp;gt;&lt;/i&gt;&lt;br&gt;&lt;span style=&quot;background-color: initial;&quot;&gt;&lt;b&gt;SdwanLinkDataS&lt;/b&gt;&lt;/span&gt;&lt;b style=&quot;background-color: initial;&quot;&gt;ervice&lt;/b&gt;&lt;/p&gt;&lt;hr size=&quot;1&quot;&gt;&lt;p style=&quot;margin: 0px 0px 0px 4px;&quot;&gt;+ save&lt;span style=&quot;background-color: initial;&quot;&gt;SouthLink&lt;/span&gt;&lt;span style=&quot;background-color: initial;&quot;&gt;Quality&lt;/span&gt;(DataDTO):&amp;nbsp;void&lt;br style=&quot;padding: 0px; margin: 0px;&quot;&gt;+&amp;nbsp;delte&lt;span style=&quot;background-color: initial;&quot;&gt;SouthLink&lt;/span&gt;&lt;span style=&quot;background-color: initial;&quot;&gt;Quality&lt;/span&gt;(List):&amp;nbsp;void&lt;br&gt;&lt;/p&gt;&lt;p style=&quot;margin: 0px 0px 0px 4px;&quot;&gt;+&amp;nbsp;scale(List):&amp;nbsp;DataDTO&lt;/p&gt;&lt;p style=&quot;margin: 0px 0px 0px 4px;&quot;&gt;+&amp;nbsp;genDataExcel(List,List): InputStream&lt;/p&gt;&lt;p style=&quot;margin:0px;margin-left:4px;&quot;&gt;&lt;/p&gt;" style="verticalAlign=top;align=left;overflow=fill;fontSize=12;fontFamily=Helvetica;html=1;" vertex="1" parent="1">
          <mxGeometry x="770" y="130" width="260" height="130" as="geometry" />
        </mxCell>
        <mxCell id="oZT5lS4tC0AtJPevwrB1-12" value="1" style="endArrow=open;html=1;endSize=12;startArrow=diamondThin;startSize=14;startFill=1;edgeStyle=orthogonalEdgeStyle;align=left;verticalAlign=bottom;rounded=0;exitX=1;exitY=0.5;exitDx=0;exitDy=0;entryX=0;entryY=0.5;entryDx=0;entryDy=0;" edge="1" parent="1" source="oZT5lS4tC0AtJPevwrB1-4" target="oZT5lS4tC0AtJPevwrB1-11">
          <mxGeometry x="-0.7778" relative="1" as="geometry">
            <mxPoint x="410" y="157.5" as="sourcePoint" />
            <mxPoint x="330" y="180.05882352941182" as="targetPoint" />
            <mxPoint as="offset" />
          </mxGeometry>
        </mxCell>
        <mxCell id="oZT5lS4tC0AtJPevwrB1-16" value="1" style="endArrow=open;html=1;endSize=12;startArrow=diamondThin;startSize=14;startFill=1;edgeStyle=orthogonalEdgeStyle;align=left;verticalAlign=bottom;rounded=0;exitX=0.5;exitY=1;exitDx=0;exitDy=0;entryX=1;entryY=0.5;entryDx=0;entryDy=0;" edge="1" parent="1" source="oZT5lS4tC0AtJPevwrB1-1" target="oZT5lS4tC0AtJPevwrB1-5">
          <mxGeometry x="-0.7778" relative="1" as="geometry">
            <mxPoint x="450" y="585.03" as="sourcePoint" />
            <mxPoint x="530" y="607.53" as="targetPoint" />
            <mxPoint as="offset" />
          </mxGeometry>
        </mxCell>
        <mxCell id="oZT5lS4tC0AtJPevwrB1-17" value="&lt;p style=&quot;margin:0px;margin-top:4px;text-align:center;&quot;&gt;&lt;b&gt;SdwanLinkDetect&lt;/b&gt;&lt;br&gt;&lt;/p&gt;&lt;hr size=&quot;1&quot;&gt;&lt;p style=&quot;margin: 0px 0px 0px 4px;&quot;&gt;-&amp;nbsp;linkId:&amp;nbsp;int&lt;/p&gt;&lt;p style=&quot;margin: 0px 0px 0px 4px;&quot;&gt;-&amp;nbsp;caseId: string&lt;br&gt;&lt;/p&gt;&lt;hr size=&quot;1&quot;&gt;&lt;p style=&quot;margin: 0px 0px 0px 4px;&quot;&gt;&lt;/p&gt;&lt;p style=&quot;margin: 0px 0px 0px 4px;&quot;&gt;+ queryJitterAsync(JSONObject): DataDTO&lt;br style=&quot;padding: 0px; margin: 0px;&quot;&gt;+ queryLossAsync(JSONObject): DataDTO&lt;/p&gt;&amp;nbsp;+ queryDelayAsync(JSONObject): DataDTO&lt;br&gt;&amp;nbsp;+ caclCMI(JSONObject): DataDTO" style="verticalAlign=top;align=left;overflow=fill;fontSize=12;fontFamily=Helvetica;html=1;" vertex="1" parent="1">
          <mxGeometry x="742.5" y="480" width="315" height="150" as="geometry" />
        </mxCell>
        <mxCell id="oZT5lS4tC0AtJPevwrB1-18" value="Extends" style="endArrow=block;endSize=16;endFill=0;html=1;rounded=0;entryX=0.5;entryY=0;entryDx=0;entryDy=0;exitX=1;exitY=0.5;exitDx=0;exitDy=0;" edge="1" parent="1" source="oZT5lS4tC0AtJPevwrB1-1" target="oZT5lS4tC0AtJPevwrB1-17">
          <mxGeometry width="160" relative="1" as="geometry">
            <mxPoint x="800" y="370" as="sourcePoint" />
            <mxPoint x="960" y="370" as="targetPoint" />
            <Array as="points">
              <mxPoint x="900" y="380" />
            </Array>
          </mxGeometry>
        </mxCell>
      </root>
    </mxGraphModel>
  </diagram>
</mxfile>
